<svg id="Capa_1" enable-background="new 0 0 510.742 510.742" height="512" viewBox="0 0 510.742 510.742" width="512" xmlns="http://www.w3.org/2000/svg"><g><g><g id="XMLID_172_"><g><path d="m414.029 160.731h-166.18v-90.78c0-12.21 9.89-22.1 22.1-22.1h121.97c12.21 0 22.11 9.89 22.11 22.1z" fill="#e5e1e5"/></g></g><path d="m305.689 80.785v-32.934h-35.74c-12.206 0-22.1 9.895-22.1 22.1v90.78h166.18v-42.154h-70.549c-20.871-.001-37.791-16.921-37.791-37.792z" fill="#d7d0d6"/><g><path d="m481.791 387.284h-332.071l-21.651 44.437v31.17h349.32c14.28 0 25.85-11.57 25.85-25.85v-5.32z" fill="#f9f7f8"/></g><path d="m477.389 136.731h-313.32l-2.07.08-23.615 12.44v94.945h335.377l29.479-43.714v-37.9c-.001-14.281-11.571-25.851-25.851-25.851z" fill="#f9f7f8"/><path d="m189.069 387.284h-39.349l-21.651 44.437v31.17h61z" fill="#efedef"/><path d="m164.069 200.481h339.17v231.24h-339.17z" fill="#fdd79b"/><g><g id="XMLID_158_"><g><path d="m131.879 105.681v33.92h-92.19v-33.92c0-7.48 6.06-13.54 13.54-13.54h65.11c7.48 0 13.54 6.06 13.54 13.54z" fill="#e5e1e5"/><path d="m149.159 388.436h-118.016l-23.644 43.285v5.32c0 14.28 11.57 25.85 25.85 25.85h130.72v-31.17z" fill="#e5e1e5"/><path d="m189.069 136.731h-25l-2.07.079-23.615 12.44v94.945h50.685z" fill="#efedef"/><path d="m162.319 137.521c-3.28-7.6-10.84-12.92-19.65-12.92h-101.08c-18.39 0-33.38 14.56-34.07 32.78l26.015 33.082h114.299l16.236-33.082v-11.381c0-3.009-.62-5.88-1.75-8.479z" fill="#e5e1e5"/><path d="m164.069 200.481h25v231.24h-25z" fill="#fccd7f"/><path d="m164.069 200.481v231.24h-156.57v-273.03c0-.44.01-.88.02-1.31h156.55z" fill="#fdd79b"/><path d="m98.284 158.69c0-.44.01-.88.02-1.31.69-18.22 15.68-32.78 34.07-32.78h-90.785c-18.39 0-33.38 14.56-34.07 32.78l26.015 33.082h64.75z" fill="#d7d0d6"/><path d="m98.284 437.041v-5.32-43.284h-67.141l-23.644 43.284v5.32c0 14.28 11.57 25.85 25.85 25.85h90.785c-14.28 0-25.85-11.571-25.85-25.85z" fill="#d7d0d6"/><path d="m98.284 158.69c0-.44.01-.88.02-1.31h-90.785c-.01.43-.02.87-.02 1.31v273.03h90.785z" fill="#fccd7f"/></g><g><path d="m391.799 200.481c37.29 21.2 62.45 61.3 62.45 107.27 0 68.1-55.21 123.3-123.31 123.3s-123.31-55.2-123.31-123.3c0-45.97 25.16-86.07 62.45-107.27 17.96-10.21 38.73-16.04 60.86-16.04s42.9 5.83 60.86 16.04z" fill="#d7d0d6"/><path d="m288.088 302.363c0-45.97 25.16-86.07 62.45-107.27 4.139-2.353 8.433-4.461 12.853-6.331-10.341-2.814-21.22-4.322-32.451-4.322-22.13 0-42.9 5.83-60.86 16.04-37.29 21.2-62.45 61.3-62.45 107.27 0 68.1 55.21 123.3 123.31 123.3 17.039 0 33.27-3.456 48.032-9.704-52.369-14.236-90.884-62.106-90.884-118.983z" fill="#c9bfc8"/><path d="m424.019 307.751c0 51.4-41.67 93.08-93.08 93.08s-93.09-41.68-93.09-93.08c0-51.41 41.68-93.09 93.09-93.09s93.08 41.68 93.08 93.09z" fill="#f9f7f8"/><path d="m237.849 307.75c0 51.4 41.68 93.08 93.09 93.08 2.023 0 4.029-.072 6.02-.199-29.683-22.513-48.871-58.139-48.871-98.268 0-34.198 13.931-65.141 36.415-87.477-48.407 3.307-86.654 43.619-86.654 92.864z" fill="#efedef"/><path d="m382.679 343.921h-103.48c-3.37 0-6.1-2.73-6.1-6.1v-60.15c0-3.37 2.73-6.1 6.1-6.1h103.48c3.37 0 6.1 2.73 6.1 6.1v60.15c0 3.37-2.73 6.1-6.1 6.1z" fill="#d7d0d6"/><path d="m291.968 271.57h-12.769c-3.37 0-6.1 2.73-6.1 6.1v60.15c0 3.37 2.73 6.1 6.1 6.1h16.088c-4.653-12.983-7.199-26.97-7.199-41.557 0-10.633 1.348-20.95 3.88-30.793z" fill="#c9bfc8"/><path d="m363.799 307.751c0 18.15-14.71 32.86-32.86 32.86s-32.87-14.71-32.87-32.86 14.72-32.87 32.87-32.87 32.86 14.72 32.86 32.87z" fill="#c9bfc8"/><path d="m277.849 104.912v-25.243c0-1.004.814-1.818 1.818-1.818h102.544c1.004 0 1.818.814 1.818 1.818v25.244c0 1.004-.814 1.818-1.818 1.818h-102.544c-1.004 0-1.818-.814-1.818-1.819z" fill="#d7d0d6"/><path d="m279.667 106.731h36.35c-6.398-6.77-10.328-15.896-10.328-25.945v-2.935h-26.022c-1.004 0-1.818.814-1.818 1.818v25.244c0 1.004.814 1.818 1.818 1.818z" fill="#c9bfc8"/></g></g></g></g></g><g><path d="m477.394 129.229h-13.901c-4.143 0-7.5 3.358-7.5 7.5s3.357 7.5 7.5 7.5h13.901c10.117 0 18.349 8.231 18.349 18.349v30.398h-102.156c-18.987-10.364-40.496-16.038-62.651-16.038-22.705 0-44.075 5.819-62.705 16.038h-96.661v-46.976c0-.596-.024-1.185-.06-1.772h260.019c4.143 0 7.5-3.358 7.5-7.5s-3.357-7.5-7.5-7.5h-10.004v-59.276c0-16.323-13.279-29.602-29.602-29.602h-121.974c-16.322 0-29.602 13.279-29.602 29.602v59.277h-74.165c-5.247-7.334-13.828-12.128-23.513-12.128h-3.289v-11.417c0-11.602-9.438-21.04-21.04-21.04h-65.111c-11.602 0-21.04 9.438-21.04 21.04v12.501c-18.418 4.271-32.189 20.802-32.189 40.501v278.357c0 18.389 14.961 33.349 33.35 33.349h444.044c18.389 0 33.349-14.96 33.349-33.349v-274.465c-.001-18.389-14.961-33.349-33.349-33.349zm-222.046-59.277c0-8.052 6.55-14.602 14.602-14.602h121.975c8.052 0 14.602 6.55 14.602 14.602v59.277h-151.179zm169.841 170.494c2.41 3.37 7.096 4.146 10.464 1.736s4.146-7.095 1.735-10.463c-6.355-8.883-13.74-16.829-21.916-23.743h80.27v216.244h-105.301c42.295-21.696 71.303-65.761 71.303-116.474 0-15.855-2.815-31.368-8.368-46.107-1.461-3.877-5.786-5.835-9.663-4.375-3.876 1.46-5.834 5.786-4.374 9.663 4.914 13.043 7.405 26.777 7.405 40.819 0 63.857-51.951 115.808-115.808 115.808s-115.808-51.951-115.808-115.808c0-63.856 51.951-115.808 115.808-115.808 37.289 0 72.524 18.134 94.253 48.508zm-178.747-32.47c-28.311 24.013-46.313 59.826-46.313 99.77 0 50.713 29.008 94.778 71.303 116.474h-99.862v-161.109c0-4.142-3.357-7.5-7.5-7.5s-7.5 3.358-7.5 7.5v161.109h-141.57v-259.337h141.57v66.265c0 4.142 3.357 7.5 7.5 7.5s7.5-3.358 7.5-7.5v-23.172zm-199.253-102.293c0-3.331 2.71-6.04 6.04-6.04h65.111c3.33 0 6.04 2.709 6.04 6.04v11.417h-77.191zm-5.603 26.417h101.084c7.665 0 13.9 6.236 13.9 13.9v3.882h-140.066c3.642-10.344 13.507-17.782 25.082-17.782zm-8.236 323.293c-9.381 0-17.127-7.079-18.208-16.173h141.428v16.173zm444.044 0h-305.824v-16.173h324.031c-1.081 9.094-8.828 16.173-18.207 16.173z"/><path d="m330.937 408.329c55.462 0 100.583-45.122 100.583-100.583s-45.121-100.583-100.583-100.583c-55.461 0-100.582 45.121-100.582 100.583s45.121 100.583 100.582 100.583zm0-186.165c47.19 0 85.583 38.392 85.583 85.583s-38.393 85.583-85.583 85.583-85.582-38.393-85.582-85.583 38.391-85.583 85.582-85.583z"/><path d="m279.198 351.424h103.477c7.501 0 13.604-6.103 13.604-13.604v-60.148c0-7.501-6.103-13.604-13.604-13.604h-103.477c-7.501 0-13.604 6.103-13.604 13.604v60.148c.001 7.502 6.103 13.604 13.604 13.604zm51.739-69.041c13.985 0 25.363 11.378 25.363 25.363s-11.378 25.363-25.363 25.363-25.363-11.378-25.363-25.363c-.001-13.985 11.377-25.363 25.363-25.363zm50.341 54.041h-21.972c7.399-7.321 11.993-17.472 11.993-28.678s-4.594-21.357-11.993-28.678h21.971v57.356zm-100.683-57.356h21.971c-7.399 7.321-11.993 17.471-11.993 28.678 0 11.206 4.594 21.358 11.993 28.678h-21.972v-57.356z"/><path d="m384.025 70.35h-106.177c-4.143 0-7.5 3.358-7.5 7.5v28.879c0 4.142 3.357 7.5 7.5 7.5h106.178c4.143 0 7.5-3.358 7.5-7.5v-28.879c-.001-4.142-3.358-7.5-7.501-7.5zm-7.5 28.879h-91.178v-13.879h91.178z"/></g></svg>